<?xml version="1.0" standalone="no"?>
<!DOCTYPE svg PUBLIC "-//W3C//DTD SVG 1.0//EN" "http://www.w3.org/TR/2001/REC-SVG-20010904/DTD/svg10.dtd">
<svg xmlns="http://www.w3.org/2000/svg" xmlns:xlink="http://www.w3.org/1999/xlink" id="body_1" width="32" height="32">

<g transform="matrix(0.054421768 0 0 0.054421768 2.6666665 2.6666665)">
	<g transform="matrix(0.83 0 0 0.83 41.65 41.65)">
        <path d="M-49 245C -49 82.62828 82.62828 -49 245 -49C 407.3717 -49 539 82.62828 539 245C 539 407.3717 407.3717 539 245 539C 82.62828 539 -49 407.3717 -49 245z" stroke="none" fill="#FFA200" fill-rule="nonzero" />
	</g>
	<g>
	</g>
	<g>
        <path d="M489.927 239.193C 489.912 238.584 489.889 237.976 489.87 237.368C 489.829 236.03099 489.78 234.69699 489.719 233.36499C 489.686 232.67699 489.651 231.98898 489.613 231.30199C 489.542 230.00899 489.459 228.719 489.368 227.43098C 489.32202 226.78398 489.27902 226.13698 489.22702 225.49098C 489.10602 223.94098 488.967 222.39699 488.816 220.85599C 488.782 220.50099 488.75302 220.14398 488.717 219.78899C 488.52502 217.90999 488.30902 216.03798 488.074 214.17099C 488.006 213.61899 487.926 213.06999 487.853 212.519C 487.676 211.189 487.494 209.862 487.29498 208.539C 487.193 207.857 487.08597 207.177 486.97897 206.497C 486.78796 205.28099 486.58597 204.068 486.37598 202.858C 486.25897 202.182 486.14197 201.505 486.02 200.83101C 485.78 199.51201 485.525 198.19801 485.26398 196.886C 485.15897 196.356 485.05997 195.824 484.951 195.296C 484.58 193.496 484.19 191.703 483.78 189.918C 483.67 189.435 483.548 188.955 483.434 188.474C 483.12 187.147 482.8 185.824 482.466 184.506C 482.293 183.827 482.113 183.15 481.935 182.47299C 481.637 181.34 481.332 180.20898 481.018 179.083C 480.823 178.38399 480.626 177.68599 480.426 176.989C 480.093 175.833 479.748 174.683 479.39798 173.534C 479.20798 172.907 479.02097 172.278 478.826 171.65399C 478.291 169.94499 477.741 168.24199 477.16898 166.54999C 477.04498 166.18199 476.91098 165.818 476.78497 165.44899C 476.317 164.08699 475.84198 162.728 475.34998 161.37599C 475.106 160.70499 474.85397 160.038 474.60498 159.36899C 474.21198 158.31699 473.81497 157.26799 473.408 156.22299C 473.132 155.51 472.85098 154.799 472.567 154.09C 472.158 153.067 471.74 152.04799 471.317 151.03099C 471.03497 150.351 470.754 149.67099 470.46597 148.99399C 469.94897 147.78198 469.41898 146.57799 468.88297 145.37599C 468.67496 144.909 468.47397 144.43799 468.26297 143.97299C 467.54898 142.39699 466.81598 140.831 466.06897 139.273C 465.75797 138.623 465.43698 137.98 465.12097 137.334C 464.63898 136.351 464.15396 135.369 463.65997 134.394C 463.30298 133.69 462.94098 132.98999 462.57797 132.29C 462.09796 131.364 461.61096 130.443 461.11896 129.52399C 460.74997 128.83398 460.37994 128.14198 460.00397 127.45499C 459.45895 126.459984 458.90198 125.472984 458.34396 124.486984C 458.01398 123.902985 457.68997 123.31499 457.35495 122.733986C 456.49796 121.248985 455.62595 119.77499 454.73895 118.30998C 454.37994 117.71498 454.00894 117.12798 453.64395 116.53698C 453.06296 115.59598 452.48096 114.65698 451.88794 113.72498C 451.46094 113.053986 451.02994 112.388985 450.59595 111.722984C 450.04196 110.86899 449.48294 110.01898 448.91794 109.17298C 448.47293 108.50598 448.02594 107.83998 447.57495 107.17798C 446.97394 106.29698 446.36496 105.42298 445.75296 104.54998C 445.33395 103.95098 444.91895 103.34998 444.49396 102.75598C 443.50595 101.37298 442.50595 99.99798 441.48996 98.63598C 414.73297 62.77398 378.38596 34.49498 336.25397 17.573982C 336.25195 17.572983 336.24997 17.572983 336.24796 17.571981C 334.57196 16.898981 332.88495 16.245981 331.19095 15.608981C 331.06894 15.562982 330.94894 15.515981 330.82794 15.470982C 329.22195 14.869982 327.60596 14.288981 325.98395 13.720982C 325.76596 13.644981 325.54794 13.566981 325.32996 13.490982C 323.78296 12.953982 322.22797 12.434982 320.66696 11.928982C 320.36597 11.830982 320.06497 11.731982 319.76395 11.634982C 318.26996 11.156982 316.76794 10.694983 315.26096 10.243982C 314.88095 10.130982 314.50195 10.016982 314.12296 9.905982C 312.67896 9.481982 311.22797 9.071982 309.77295 8.673982C 309.31894 8.548982 308.86395 8.4259815 308.40796 8.303982C 307.01297 7.9319816 305.61395 7.5699816 304.20895 7.221982C 303.68195 7.090982 303.15195 6.962982 302.62296 6.834982C 301.27496 6.509982 299.92496 6.193982 298.56796 5.891982C 297.97098 5.758982 297.37296 5.630982 296.77496 5.5009823C 295.47195 5.220982 294.16898 4.9479823 292.85898 4.687982C 292.19098 4.555982 291.52097 4.429982 290.85098 4.3029823C 289.59897 4.0659823 288.34497 3.8329823 287.08597 3.6149824C 286.34497 3.4859824 285.59998 3.3669825 284.85596 3.2449822C 283.65594 3.0479822 282.45496 2.8539822 281.24896 2.6749823C 280.43198 2.5529823 279.61096 2.4449823 278.79196 2.3309822C 277.64597 2.1729822 276.49997 2.0129821 275.34796 1.8709822C 274.45297 1.7599821 273.55295 1.6639822 272.65497 1.5629822C 271.56696 1.4409822 270.47998 1.3149822 269.38696 1.2069821C 268.40198 1.1089821 267.41196 1.0299821 266.42297 0.9439821C 265.40598 0.8559821 264.39197 0.76098216 263.37097 0.6849821C 262.26797 0.6029821 261.15796 0.5419821 260.05096 0.47498214C 259.13397 0.41898215 258.21997 0.35398215 257.29996 0.30798215C 256.00494 0.24398214 254.70296 0.20398214 253.40396 0.15998214C 252.66096 0.13498214 251.91997 0.096982144 251.17397 0.078982145C 249.121 0.027 247.064 0 245 0C 242.936 0 240.879 0.027 238.827 0.078C 238.08 0.097 237.33899 0.134 236.594 0.15900001C 235.295 0.20300001 233.995 0.243 232.70099 0.307C 231.77899 0.352 230.86299 0.418 229.94499 0.474C 228.84 0.541 227.732 0.603 226.62999 0.684C 225.60799 0.76 224.59099 0.855 223.57199 0.943C 222.586 1.028 221.59698 1.108 220.61499 1.2060001C 219.519 1.3140001 218.42899 1.4410001 217.338 1.5630001C 216.443 1.664 215.547 1.7590001 214.655 1.8700001C 213.5 2.013 212.351 2.173 211.201 2.331C 210.38501 2.444 209.567 2.553 208.754 2.673C 207.54399 2.8530002 206.34 3.048 205.136 3.2450001C 204.397 3.3660002 203.656 3.4840002 202.918 3.6120002C 201.65399 3.8310003 200.397 4.065 199.14 4.302C 198.475 4.429 197.81 4.553 197.147 4.684C 195.83301 4.945 194.52301 5.219 193.216 5.5C 192.623 5.627 192.031 5.755 191.44 5.887C 190.078 6.191 188.71901 6.508 187.366 6.834C 186.845 6.96 186.323 7.087 185.803 7.216C 184.39 7.567 182.98299 7.9300003 181.579 8.305C 181.133 8.424001 180.68599 8.545 180.241 8.667C 178.777 9.066999 177.318 9.48 175.864 9.907C 175.495 10.014999 175.127 10.125999 174.76 10.236C 173.23999 10.689 171.728 11.156 170.222 11.6380005C 169.934 11.7300005 169.647 11.824 169.36 11.918C 167.784 12.429 166.214 12.953 164.653 13.495C 164.453 13.564 164.254 13.636 164.053 13.706C 162.41199 14.280001 160.778 14.869 159.153 15.477C 159.056 15.5130005 158.96 15.551001 158.864 15.587C 114.502 32.253 76.252 61.402 48.41 98.773C 47.435 100.082 46.473 101.4 45.524 102.729004C 45.075996 103.357 44.635998 103.993004 44.193996 104.62501C 43.606995 105.464005 43.020996 106.30301 42.443996 107.14901C 41.977997 107.83201 41.518997 108.51801 41.059998 109.20501C 40.510998 110.02801 39.967 110.85501 39.427 111.68501C 38.982 112.37201 38.536 113.057014 38.096996 113.74802C 37.524998 114.64702 36.963997 115.55302 36.403996 116.460014C 36.018997 117.083015 35.629997 117.70101 35.250996 118.32701C 34.370995 119.78201 33.504997 121.24501 32.653996 122.72001C 32.305996 123.323006 31.968996 123.93301 31.626995 124.53901C 31.079994 125.504005 30.535995 126.47001 30.002995 127.44301C 29.620995 128.141 29.245995 128.843 28.869995 129.54501C 28.384995 130.45001 27.904995 131.35901 27.431995 132.27202C 27.062996 132.98102 26.696995 133.69202 26.333996 134.40602C 25.845995 135.36902 25.367996 136.33803 24.892996 137.30801C 24.570995 137.96501 24.244995 138.61902 23.927996 139.28001C 23.191996 140.81601 22.468996 142.35901 21.764996 143.91202C 21.540995 144.40602 21.326996 144.90501 21.105995 145.40002C 20.574995 146.59302 20.047995 147.78802 19.535995 148.99103C 19.245995 149.67102 18.965996 150.35403 18.681995 151.03603C 18.259995 152.05003 17.842995 153.06703 17.434996 154.08702C 17.150995 154.79802 16.870996 155.51003 16.591995 156.22401C 16.186995 157.26802 15.789995 158.31502 15.397995 159.36601C 15.147995 160.03601 14.894995 160.70401 14.649995 161.378C 14.160995 162.727 13.685995 164.082 13.218995 165.44101C 13.091995 165.81201 12.956995 166.17902 12.831995 166.55C 12.2599945 168.243 11.709995 169.946 11.174995 171.655C 10.979996 172.27899 10.792995 172.906 10.602995 173.532C 10.252995 174.68 9.908995 175.831 9.5759945 176.986C 9.374994 177.683 9.177995 178.38199 8.982994 179.083C 8.668994 180.211 8.362994 181.342 8.064994 182.476C 7.886994 183.151 7.707994 183.824 7.536994 184.50099C 7.200994 185.82399 6.878994 187.152 6.563994 188.48299C 6.451994 188.96199 6.331994 189.43698 6.220994 189.91599C 5.810994 191.70299 5.420994 193.49698 5.049994 195.29799C 4.940994 195.82399 4.842994 196.35399 4.736994 196.88098C 4.4749937 198.19498 4.220994 199.50998 3.9799938 200.83199C 3.8579938 201.50598 3.7409937 202.18199 3.622994 202.85698C 3.412994 204.06898 3.211994 205.28398 3.019994 206.50198C 2.912994 207.17998 2.805994 207.85698 2.704994 208.53699C 2.506994 209.86398 2.322994 211.19499 2.145994 212.52899C 2.073994 213.07599 1.9949939 213.62099 1.9259939 214.17C 1.691994 216.037 1.4759939 217.91 1.2829939 219.79C 1.2469939 220.14499 1.2189939 220.502 1.1839939 220.857C 1.0329939 222.398 0.893994 223.942 0.7729939 225.49199C 0.72099394 226.137 0.6779939 226.78499 0.6319939 227.43199C 0.54099387 228.71999 0.4579939 230.01 0.38699389 231.303C 0.3489939 231.98999 0.31399387 232.678 0.28099388 233.366C 0.21999387 234.69699 0.17099388 236.032 0.12999389 237.369C 0.110993885 237.977 0.08799389 238.584 0.07299389 239.194C 0.028 241.124 0 243.059 0 245C 0 246.737 0.027 248.468 0.065 250.196C 0.082 250.974 0.102 251.752 0.126 252.528C 0.147 253.195 0.175 253.859 0.201 254.524C 1.885 298.546 15.18 339.587 37.116 374.678C 37.119 374.682 37.121002 374.686 37.123 374.69C 41.280003 381.338 45.745003 387.771 50.502 393.971C 50.527 394.005 50.553997 394.039 50.579998 394.073C 55.287 400.202 60.274998 406.102 65.529 411.754C 65.651 411.885 65.773 412.016 65.895 412.147C 66.894 413.216 67.899994 414.279 68.917 415.33002C 68.959 415.37402 69.002 415.41702 69.044 415.46103C 72.205 418.72302 75.456 421.89703 78.792 424.98004C 78.898 425.07803 79.003 425.17703 79.11 425.27505C 80.098 426.18506 81.095 427.08405 82.098 427.97705C 82.373 428.22305 82.65 428.46805 82.926 428.71304C 83.907005 429.57803 84.891 430.43704 85.885 431.28604C 86.114 431.48303 86.348 431.67703 86.578 431.87305C 89.75 434.56503 92.992004 437.17703 96.301 439.70804C 96.631004 439.96103 96.96 440.21704 97.292 440.46805C 98.236 441.18304 99.188 441.88806 100.144 442.58905C 100.59499 442.92105 101.047 443.25006 101.5 443.57904C 102.436 444.25604 103.373 444.92905 104.318 445.59305C 104.761 445.90405 105.209 446.21106 105.655 446.52005C 108.798 448.69705 111.993996 450.80206 115.24 452.83405C 115.786995 453.17606 116.331 453.52005 116.88 453.85706C 117.781 454.41104 118.687996 454.95605 119.596 455.49805C 120.208 455.86404 120.823 456.22705 121.439 456.58704C 122.334 457.11005 123.23 457.63104 124.131004 458.14404C 124.768005 458.50504 125.407005 458.85904 126.047005 459.21506C 129.186 460.96207 132.365 462.64005 135.586 464.25107C 136.296 464.60608 137.004 464.96207 137.718 465.31006C 138.6 465.74106 139.488 466.16306 140.375 466.58307C 141.104 466.92807 141.836 467.27008 142.569 467.60706C 143.457 468.01605 144.343 468.42307 145.237 468.82104C 145.99 469.15704 146.747 469.48404 147.504 469.81305C 148.388 470.19705 149.269 470.58505 150.158 470.95905C 150.16 470.96005 150.162 470.96106 150.16501 470.96204C 179.337 483.221 211.376 490 245 490C 278.172 490 309.796 483.394 338.649 471.448C 338.651 471.447 338.654 471.44598 338.65598 471.445C 340.13998 470.83002 341.61597 470.199 343.08597 469.556C 343.23495 469.491 343.38498 469.425 343.53397 469.36C 344.97195 468.727 346.40396 468.08197 347.82898 467.422C 347.94998 467.366 348.07098 467.309 348.192 467.253C 355.68298 463.76898 362.969 459.918 370.02698 455.722C 370.175 455.63397 370.32397 455.547 370.472 455.45798C 371.736 454.70297 372.991 453.93597 374.24 453.15897C 374.498 452.99896 374.75598 452.83795 375.012 452.67697C 376.225 451.916 377.431 451.14697 378.63 450.36496C 378.877 450.20297 379.12302 450.03995 379.37 449.87695C 380.602 449.06696 381.83 448.25095 383.047 447.41995C 383.096 447.38596 383.145 447.35196 383.195 447.31796C 387.138 444.61896 390.99802 441.80597 394.772 438.88696C 394.967 438.73596 395.165 438.58795 395.36002 438.43597C 396.377 437.64398 397.385 436.839 398.38803 436.03198C 398.79504 435.705 399.20303 435.37897 399.60904 435.04898C 400.53903 434.291 401.46204 433.52597 402.38004 432.75497C 402.84705 432.36398 403.31204 431.97098 403.77502 431.576C 404.65802 430.82397 405.53702 430.068 406.40903 429.304C 406.89 428.883 407.36603 428.456 407.84302 428.03098C 408.70102 427.26697 409.558 426.50497 410.40402 425.72897C 410.84903 425.32098 411.28802 424.90598 411.73 424.49496C 413.55402 422.79996 415.355 421.07898 417.127 419.32996C 417.37402 419.08694 417.625 418.84897 417.87003 418.60394C 418.57904 417.89896 419.27402 417.18195 419.97403 416.46796C 420.55502 415.87497 421.13803 415.28494 421.71304 414.68594C 422.37006 414.00195 423.01904 413.30994 423.66705 412.61896C 424.27505 411.97095 424.88205 411.32196 425.48306 410.66797C 426.10107 409.99496 426.71405 409.31696 427.32605 408.63696C 427.95206 407.93997 428.57306 407.23895 429.19104 406.53497C 429.76703 405.87796 430.34305 405.21997 430.91403 404.55597C 431.57303 403.78796 432.22504 403.01398 432.87402 402.23798C 433.39102 401.62198 433.911 401.00897 434.42102 400.38696C 435.23502 399.39597 436.036 398.39395 436.83502 397.38995C 437.16803 396.97095 437.50903 396.55795 437.83902 396.13696C 438.94003 394.73495 440.023 393.31897 441.09302 391.89297C 441.48602 391.37097 441.868 390.83997 442.255 390.31497C 442.961 389.35797 443.665 388.39996 444.357 387.43298C 444.783 386.839 445.201 386.24 445.622 385.641C 446.267 384.724 446.906 383.80298 447.539 382.87598C 447.957 382.26196 448.37302 381.64597 448.786 381.02798C 449.41702 380.085 450.04 379.136 450.65802 378.18298C 451.04602 377.586 451.43402 376.99 451.816 376.38898C 452.48 375.34598 453.13202 374.29498 453.781 373.24097C 454.098 372.72595 454.42102 372.21497 454.734 371.69797C 455.672 370.14996 456.594 368.59198 457.49802 367.02197C 457.514 366.99597 457.52902 366.96997 457.544 366.94498C 457.545 366.94397 457.545 366.942 457.54602 366.94098C 476.708 333.61298 488.23703 295.34598 489.799 254.52498C 489.825 253.85999 489.853 253.19598 489.87402 252.52898C 489.89703 251.75198 489.91803 250.97498 489.93503 250.19698C 489.97302 248.46898 490.00003 246.73798 490.00003 245.00098C 490 243.059 489.972 241.124 489.927 239.193zM255 76.606L316.818 31.693005C 322.12698 33.483006 327.38098 35.476006 332.574 37.673004C 359.365 49.005 383.43 65.23 404.1 85.9C 415.377 97.178 425.32202 109.473 433.88 122.664L433.88 122.664L412.305 190.78601L348.00098 211.897L255 144.33L255 76.606zM85.901 85.9C 106.571 65.23 130.63501 49.005 157.426 37.673C 162.618 35.477 167.872 33.483 173.183 31.693L173.183 31.693L235 76.606L235 144.33L141.502 212.26001L77.798004 191.108L56.121002 122.665C 64.68 109.474 74.624 97.178 85.901 85.9zM125.224 388.634L64.197 378.967C 53.559 364.648 44.678 349.133 37.675 332.57202C 26.204998 305.45602 20.281 276.67502 20.026 247.00003L20.026 247.00003L71.59 210.11903L135.333 231.28403L171.44199 342.41504L125.224 388.634zM342.379 447.901C 339.152 449.45 335.885 450.925 332.574 452.326C 304.848 464.054 275.384 470 245 470C 214.617 470 185.15201 464.054 157.427 452.326C 153.703 450.75098 150.037 449.07098 146.42 447.30798L146.42 447.30798L139.367 402.775L189.207 352.935L307.793 352.935L350.635 395.776L342.379 447.901zM452.326 332.573C 446.589 346.137 439.59198 359 431.404 371.08L431.404 371.08L364.775 381.632L320.27698 337.133L354.86096 230.693L418.13297 209.92L469.97498 246.999C 469.72 276.676 463.796 305.457 452.326 332.573z" stroke="none" fill="#000000" fill-rule="nonzero" />
	</g>
</g>
</svg>