<?xml version="1.0" encoding="UTF-8"?>
<svg xmlns="http://www.w3.org/2000/svg" xmlns:xlink="http://www.w3.org/1999/xlink" width="23px" height="27px" viewBox="0 0 23 23" version="1.1">
<g id="surface1">
<path style=" stroke:none;fill-rule:nonzero;fill:rgb(0%,0%,0%);fill-opacity:1;" d="M 0.78125 7.992188 L 2.960938 11.5 L 0.78125 15.007812 C 0.429688 13.917969 0.234375 12.707031 0.234375 11.5 C 0.195312 10.292969 0.390625 9.082031 0.78125 7.992188 Z M 2.960938 4.09375 C 4.5625 2.261719 6.703125 0.972656 9.160156 0.429688 L 7.210938 4.054688 Z M 14.035156 7.210938 L 16.566406 11.5 L 14.035156 15.789062 L 8.964844 15.789062 L 6.433594 11.5 L 8.964844 7.210938 Z M 15.789062 18.90625 L 20.039062 18.90625 C 18.4375 20.738281 16.257812 22.0625 13.761719 22.570312 Z M 9.121094 22.570312 C 6.667969 22.0625 4.523438 20.738281 2.960938 18.945312 L 7.210938 18.945312 Z M 13.839844 0.429688 C 16.292969 0.9375 18.4375 2.222656 20 4.054688 L 19.960938 4.09375 L 15.789062 4.09375 Z M 22.804688 11.5 C 22.804688 12.707031 22.609375 13.917969 22.257812 15.007812 L 20.117188 11.5 L 22.257812 7.992188 L 22.296875 7.992188 C 22.609375 9.082031 22.804688 10.292969 22.804688 11.5 Z M 22.804688 11.5 "/>
<path style=" stroke:none;fill-rule:nonzero;fill:rgb(21.960784%,100%,90.980392%);fill-opacity:1;" d="M 8.964844 15.789062 L 7.210938 18.90625 L 9.121094 22.53125 C 9.902344 22.6875 10.679688 22.765625 11.5 22.765625 C 12.28125 22.765625 13.019531 22.6875 13.761719 22.53125 L 15.789062 18.867188 L 14.035156 15.75 L 8.964844 15.75 L 8.964844 15.789062 L 6.433594 11.5 L 2.921875 11.5 L 0.742188 15.007812 C 1.207031 16.449219 1.949219 17.777344 2.960938 18.90625 L 7.210938 18.90625 Z M 15.789062 4.09375 L 13.839844 0.46875 C 13.097656 0.3125 12.320312 0.234375 11.5 0.234375 C 10.679688 0.234375 9.902344 0.3125 9.160156 0.46875 L 7.210938 4.09375 L 8.964844 7.210938 L 13.996094 7.210938 L 16.527344 11.5 L 20.039062 11.5 L 22.179688 7.992188 L 22.21875 7.992188 C 21.753906 6.550781 20.972656 5.183594 20 4.054688 L 19.960938 4.09375 Z M 22.21875 15.007812 C 21.910156 15.984375 21.480469 16.878906 20.933594 17.738281 C 20.933594 17.738281 20.386719 18.515625 20.039062 18.90625 L 15.789062 18.90625 L 14.035156 15.789062 L 16.566406 11.5 L 20.078125 11.5 Z M 7.210938 4.09375 L 8.964844 7.210938 L 6.433594 11.5 L 2.921875 11.5 L 0.78125 7.992188 C 1.246094 6.550781 2.027344 5.222656 3 4.09375 Z M 7.210938 4.09375 "/>
<path style=" stroke:none;fill-rule:nonzero;fill:rgb(0%,0%,0%);fill-opacity:1;" d="M 11.5 23 C 5.144531 23 0 17.855469 0 11.5 C 0 5.144531 5.144531 0 11.5 0 C 17.855469 0 23 5.144531 23 11.5 C 23 13.761719 22.335938 15.945312 21.089844 17.855469 C 21.011719 17.933594 20.894531 17.972656 20.816406 17.894531 C 20.738281 17.816406 20.699219 17.699219 20.777344 17.621094 C 21.324219 16.800781 21.714844 15.945312 22.027344 15.046875 L 19.960938 11.695312 L 16.683594 11.695312 L 14.269531 15.789062 L 15.90625 18.710938 L 20.039062 18.710938 C 20.039062 18.710938 20.039062 18.710938 20.078125 18.710938 L 20.113281 18.710938 C 20.113281 18.710938 20.152344 18.710938 20.152344 18.75 C 20.152344 18.75 20.152344 18.75 20.191406 18.75 C 20.230469 18.75 20.230469 18.789062 20.230469 18.828125 C 20.230469 18.867188 20.230469 18.867188 20.230469 18.90625 L 20.230469 18.984375 C 20.230469 18.984375 20.230469 19.023438 20.191406 19.023438 C 18.011719 21.558594 14.851562 23 11.5 23 Z M 9.238281 22.375 C 10.640625 22.648438 12.164062 22.6875 13.605469 22.414062 L 15.554688 18.90625 L 13.917969 15.984375 L 9.082031 15.984375 L 7.445312 18.90625 Z M 15.90625 19.101562 L 14.152344 22.296875 C 16.21875 21.792969 18.128906 20.699219 19.609375 19.101562 Z M 3.390625 19.101562 C 4.832031 20.621094 6.667969 21.753906 8.730469 22.257812 L 7.054688 19.101562 Z M 3.039062 18.710938 L 7.09375 18.710938 L 8.730469 15.789062 L 6.316406 11.695312 L 3.039062 11.695312 L 0.972656 15.046875 C 1.441406 16.410156 2.144531 17.660156 3.039062 18.710938 Z M 9.082031 15.59375 L 13.917969 15.59375 L 16.332031 11.5 L 13.917969 7.40625 L 9.082031 7.40625 L 6.667969 11.5 Z M 20.308594 11.5 L 22.179688 14.578125 C 22.453125 13.605469 22.609375 12.550781 22.609375 11.5 C 22.609375 10.449219 22.453125 9.394531 22.179688 8.421875 Z M 0.820312 8.460938 C 0.546875 9.433594 0.390625 10.449219 0.390625 11.5 C 0.390625 12.550781 0.546875 13.566406 0.820312 14.539062 L 2.691406 11.5 Z M 16.683594 11.304688 L 19.960938 11.304688 L 22.027344 7.953125 C 21.558594 6.589844 20.855469 5.378906 19.960938 4.289062 L 15.90625 4.289062 L 14.269531 7.210938 Z M 3.039062 11.304688 L 6.316406 11.304688 L 8.730469 7.210938 L 7.09375 4.289062 L 3.039062 4.289062 C 2.144531 5.339844 1.402344 6.589844 0.9375 7.953125 Z M 9.082031 7.015625 L 13.917969 7.015625 L 15.554688 4.09375 L 13.683594 0.625 C 12.28125 0.351562 10.71875 0.351562 9.277344 0.625 L 7.40625 4.09375 Z M 15.90625 3.898438 L 19.609375 3.898438 C 18.167969 2.378906 16.296875 1.246094 14.230469 0.742188 Z M 3.390625 3.898438 L 7.09375 3.898438 L 8.808594 0.742188 C 6.703125 1.246094 4.832031 2.378906 3.390625 3.898438 Z M 3.390625 3.898438 "/>
</g>
</svg>
