<?xml version="1.0" encoding="UTF-8"?>
<svg xmlns="http://www.w3.org/2000/svg" xmlns:xlink="http://www.w3.org/1999/xlink" width="25px" height="25px" viewBox="0 0 25 25" version="1.1">
<g id="surface1">
<path style=" stroke:none;fill-rule:nonzero;fill:rgb(0%,0%,0%);fill-opacity:1;" d="M 0.847656 8.6875 L 3.21875 12.5 L 0.847656 16.3125 C 0.464844 15.128906 0.253906 13.8125 0.253906 12.5 C 0.210938 11.1875 0.421875 9.871094 0.847656 8.6875 Z M 3.21875 4.449219 C 4.957031 2.457031 7.289062 1.058594 9.957031 0.464844 L 7.839844 4.40625 Z M 15.253906 7.839844 L 18.007812 12.5 L 15.253906 17.160156 L 9.746094 17.160156 L 6.992188 12.5 L 9.746094 7.839844 Z M 17.160156 20.550781 L 21.78125 20.550781 C 20.042969 22.542969 17.667969 23.984375 14.957031 24.535156 Z M 9.914062 24.535156 C 7.246094 23.984375 4.914062 22.542969 3.21875 20.59375 L 7.839844 20.59375 Z M 15.042969 0.464844 C 17.710938 1.015625 20.042969 2.414062 21.738281 4.40625 L 21.695312 4.449219 L 17.160156 4.449219 Z M 24.789062 12.5 C 24.789062 13.8125 24.578125 15.128906 24.195312 16.3125 L 21.863281 12.5 L 24.195312 8.6875 L 24.238281 8.6875 C 24.578125 9.871094 24.789062 11.1875 24.789062 12.5 Z M 24.789062 12.5 "/>
<path style=" stroke:none;fill-rule:nonzero;fill:rgb(92.54902%,95.686275%,96.862745%);fill-opacity:1;" d="M 9.746094 17.160156 L 7.839844 20.550781 L 9.914062 24.492188 C 10.761719 24.660156 11.609375 24.746094 12.5 24.746094 C 13.347656 24.746094 14.152344 24.660156 14.957031 24.492188 L 17.160156 20.507812 L 15.253906 17.117188 L 9.746094 17.117188 L 9.746094 17.160156 L 6.992188 12.5 L 3.179688 12.5 L 0.804688 16.3125 C 1.3125 17.882812 2.117188 19.320312 3.21875 20.550781 L 7.839844 20.550781 Z M 17.160156 4.449219 L 15.042969 0.507812 C 14.238281 0.339844 13.390625 0.253906 12.5 0.253906 C 11.609375 0.253906 10.761719 0.339844 9.957031 0.507812 L 7.839844 4.449219 L 9.746094 7.839844 L 15.210938 7.839844 L 17.964844 12.5 L 21.78125 12.5 L 24.109375 8.6875 L 24.152344 8.6875 C 23.644531 7.117188 22.796875 5.636719 21.738281 4.40625 L 21.695312 4.449219 Z M 24.152344 16.3125 C 23.8125 17.371094 23.347656 18.347656 22.753906 19.28125 C 22.753906 19.28125 22.160156 20.128906 21.78125 20.550781 L 17.160156 20.550781 L 15.253906 17.160156 L 18.007812 12.5 L 21.820312 12.5 Z M 7.839844 4.449219 L 9.746094 7.839844 L 6.992188 12.5 L 3.179688 12.5 L 0.847656 8.6875 C 1.355469 7.117188 2.203125 5.679688 3.261719 4.449219 Z M 7.839844 4.449219 "/>
<path style=" stroke:none;fill-rule:nonzero;fill:rgb(0%,0%,0%);fill-opacity:1;" d="M 12.5 25 C 5.59375 25 0 19.40625 0 12.5 C 0 5.59375 5.59375 0 12.5 0 C 19.40625 0 25 5.59375 25 12.5 C 25 14.957031 24.28125 17.332031 22.921875 19.40625 C 22.839844 19.492188 22.710938 19.535156 22.628906 19.449219 C 22.542969 19.363281 22.5 19.238281 22.585938 19.152344 C 23.179688 18.261719 23.601562 17.332031 23.941406 16.355469 L 21.695312 12.710938 L 18.136719 12.710938 L 15.507812 17.160156 L 17.289062 20.339844 L 21.78125 20.339844 C 21.78125 20.339844 21.78125 20.339844 21.820312 20.339844 L 21.863281 20.339844 C 21.863281 20.339844 21.90625 20.339844 21.90625 20.382812 C 21.90625 20.382812 21.90625 20.382812 21.949219 20.382812 C 21.992188 20.382812 21.992188 20.421875 21.992188 20.464844 C 21.992188 20.507812 21.992188 20.507812 21.992188 20.550781 L 21.992188 20.636719 C 21.992188 20.636719 21.992188 20.679688 21.949219 20.679688 C 19.578125 23.433594 16.144531 25 12.5 25 Z M 10.042969 24.320312 C 11.566406 24.617188 13.21875 24.660156 14.789062 24.363281 L 16.90625 20.550781 L 15.128906 17.371094 L 9.871094 17.371094 L 8.09375 20.550781 Z M 17.289062 20.761719 L 15.382812 24.238281 C 17.628906 23.6875 19.703125 22.5 21.3125 20.761719 Z M 3.6875 20.761719 C 5.253906 22.414062 7.246094 23.644531 9.492188 24.195312 L 7.667969 20.761719 Z M 3.304688 20.339844 L 7.710938 20.339844 L 9.492188 17.160156 L 6.863281 12.710938 L 3.304688 12.710938 L 1.058594 16.355469 C 1.566406 17.839844 2.332031 19.195312 3.304688 20.339844 Z M 9.871094 16.949219 L 15.128906 16.949219 L 17.753906 12.5 L 15.128906 8.050781 L 9.871094 8.050781 L 7.246094 12.5 Z M 22.078125 12.5 L 24.109375 15.847656 C 24.40625 14.789062 24.578125 13.644531 24.578125 12.5 C 24.578125 11.355469 24.40625 10.210938 24.109375 9.152344 Z M 0.890625 9.195312 C 0.59375 10.253906 0.421875 11.355469 0.421875 12.5 C 0.421875 13.644531 0.59375 14.746094 0.890625 15.804688 L 2.921875 12.5 Z M 18.136719 12.289062 L 21.695312 12.289062 L 23.941406 8.644531 C 23.433594 7.160156 22.667969 5.847656 21.695312 4.660156 L 17.289062 4.660156 L 15.507812 7.839844 Z M 3.304688 12.289062 L 6.863281 12.289062 L 9.492188 7.839844 L 7.710938 4.660156 L 3.304688 4.660156 C 2.332031 5.804688 1.527344 7.160156 1.015625 8.644531 Z M 9.871094 7.628906 L 15.128906 7.628906 L 16.90625 4.449219 L 14.871094 0.679688 C 13.347656 0.382812 11.652344 0.382812 10.085938 0.679688 L 8.050781 4.449219 Z M 17.289062 4.238281 L 21.3125 4.238281 C 19.746094 2.585938 17.710938 1.355469 15.464844 0.804688 Z M 3.6875 4.238281 L 7.710938 4.238281 L 9.578125 0.804688 C 7.289062 1.355469 5.253906 2.585938 3.6875 4.238281 Z M 3.6875 4.238281 "/>
</g>
</svg>
