<?xml version="1.0" encoding="utf-8"?>
<!-- Generator: Adobe Illustrator 23.0.2, SVG Export Plug-In . SVG Version: 6.00 Build 0)  -->
<svg version="1.1" id="Layer_1" xmlns="http://www.w3.org/2000/svg" xmlns:xlink="http://www.w3.org/1999/xlink" x="0px" y="0px"
	 viewBox="0 0 71.5 90.5" style="enable-background:new 0 0 71.5 90.5;" xml:space="preserve">
<style type="text/css">
	.st0{fill:#E1001E;}
	.st1{fill:#FFFFFF;}
	.st2{fill:#FFCB00;}
</style>
<g id="LOGO-NECAXA">
	<g id="Grupo_1" transform="translate(-74.246 -121.433)">
		<g id="Grupo_17529" transform="translate(86.245 125.433)">
			<path id="Trazado_21949" class="st0" d="M58.3,20.3l-0.9-4.6l-4.5,1.4c-2.6,0.8-5.3,1.3-8.1,1.3c-6.3,0-12.2-2.5-18.2-7.7L23.7,8
				l-2.9,2.8c-4.8,4.9-11.4,7.6-18.3,7.5c-2.8,0-5.5-0.3-8.2-1l-4.2-0.9l-0.9,4.2c-2.2,10.4-1.6,21.3,1.9,31.4
				C-5.1,62.3,1.4,71.5,10,78.3c4.2,3.3,8.8,6,13.7,8.1c0,0,16.6-7.7,25.4-20.5C58.4,52.7,61.5,37.3,58.3,20.3z M47.3,64.7
				C38.8,77,23.7,84,23.7,84c-4.4-1.9-8.6-4.4-12.3-7.4C3.1,69.9-3.1,61.1-6.6,51.1C-10,41.5-10.6,31-8.5,21l0.4-2l1.9,0.4
				c2.9,0.7,5.8,1,8.7,1c7.5,0.2,14.7-2.8,19.9-8.1l1.3-1.3l1.4,1.2c6.4,5.6,12.8,8.3,19.7,8.3l0,0c3,0,5.9-0.5,8.7-1.4l2.1-0.6
				l0.4,2.1C59.1,37.1,56.2,51.9,47.3,64.7z"/>
			<path id="Trazado_21950" class="st1" d="M55.6,18.6l-2.1,0.6c-2.8,0.9-5.8,1.4-8.7,1.4l0,0c-6.9,0-13.3-2.7-19.7-8.3l-1.4-1.2
				l-1.3,1.3c-5.2,5.3-12.4,8.3-19.9,8.1c-2.9,0-5.9-0.4-8.7-1L-8.1,19l-0.4,2c-2.2,10-1.5,20.5,1.8,30.1c3.5,10,9.8,18.8,18.1,25.4
				c3.8,3,7.9,5.5,12.3,7.4c0,0,15-7,23.6-19.3c8.9-12.8,11.8-27.6,8.7-44L55.6,18.6z M47.3,36.9h7.9c-0.6,8.6-3.3,17-7.9,24.3V36.9
				z M23.7,13.8c9.4,8.3,19.4,10.7,30.4,7.3c0.9,4.6,1.3,9.3,1.1,14h-63c-0.2-4.6,0.2-9.2,1.2-13.7C5.6,24.1,15.9,21.6,23.7,13.8
				L23.7,13.8z M27.6,36.9v42.9c-2.3,1.4-3.8,2.1-3.8,2.1c-1.3-0.6-2.6-1.2-3.8-1.9V36.9L27.6,36.9z M-7.6,36.9h7.9v24.2
				c-2-3.3-3.7-6.9-5-10.6C-6.3,46.1-7.3,41.5-7.6,36.9L-7.6,36.9z M6.2,69V36.9h7.7v39.2C11.1,74,8.6,71.6,6.2,69L6.2,69z
				 M33.6,75.8V36.9h7.7V69C38.9,71.5,36.3,73.8,33.6,75.8L33.6,75.8z"/>
			<path id="Trazado_21951" class="st0" d="M0.2,36.9h-7.9c0.3,4.6,1.3,9.2,2.8,13.6c1.3,3.7,3,7.2,5,10.6L0.2,36.9z"/>
			<path id="Trazado_21952" class="st0" d="M41.3,36.9h-7.7v38.9c2.8-2,5.3-4.3,7.7-6.8V36.9z"/>
			<path id="Trazado_21953" class="st0" d="M19.9,80c1.2,0.7,2.5,1.3,3.8,1.9c0,0,1.5-0.7,3.8-2.1V36.9h-7.7V80z"/>
			<path id="Trazado_21954" class="st0" d="M13.9,36.9H6.2V69c2.3,2.6,4.9,4.9,7.7,7V36.9z"/>
			<path id="Trazado_21955" class="st0" d="M-6.6,21.4c-0.9,4.5-1.3,9.1-1.2,13.7h63c0.1-4.7-0.2-9.4-1.1-14c-11,3.4-21,1-30.4-7.3
				C15.9,21.6,5.6,24.1-6.6,21.4z"/>
			<path id="Trazado_21956" class="st0" d="M47.3,36.9v24.3c4.6-7.3,7.3-15.7,7.9-24.3L47.3,36.9z"/>
			<path id="Trazado_21957" class="st2" d="M20.6,5.6l3.1-1.6l3.2,1.7l-0.7-3.5l2.7-2.4l-3.7-0.4L23.7-4l-1.4,3.3l-3.7,0.4l2.7,2.4
				L20.6,5.6z"/>
			<path id="Trazado_21958" class="st2" d="M41.9,10.4L45,8.8l3.2,1.7l-0.7-3.5l2.7-2.4l-3.7-0.4L45,0.8l-1.4,3.3l-3.7,0.4L42.6,7
				L41.9,10.4z"/>
			<path id="Trazado_21959" class="st2" d="M-0.7,10.4l3.1-1.6l3.2,1.7L4.9,6.9l2.7-2.4L4,4.1L2.5,0.8L1,4.1l-3.7,0.4L0.1,7
				L-0.7,10.4z"/>
		</g>
		<g id="Grupo_17530" transform="translate(93.579 146.589)">
			<path id="Trazado_21960" class="st1" d="M41.8,4.5l3.4,7.7h-1.5l-0.9-1.7h-3.4L39,12.2h-2.4l2.2-8.3C38.9,3.4,39.5,3,40.1,3
				C40.8,3,41.3,3.4,41.8,4.5z M41.7,8.6l-1.4-3.2c-0.1-0.2-0.2-0.2-0.3,0l-0.5,3.2H41.7z"/>
			<path id="Trazado_21961" class="st1" d="M36,2.7l-3.2,4.9l3,4.6h-2.2L31,8.4l-2,3.8h-2.4l2.7-4.6l-4.6-7.1l2.7,1L31,7.1l2.7-4.4
				L36,2.7z"/>
			<path id="Trazado_21962" class="st1" d="M25.7,12.2h-2.1L22.3,8l-3.3-0.2v4.3h-2.2V-2.6c-0.1-0.7,0.5-1.3,1.2-1.4
				c0,0,0.1,0,0.1,0c1.2,0,2.2,0.7,2.6,1.9C20.8-2.1,24.3,7.7,25.7,12.2z M21.7,5.7l-2-6.6C19.5-1.4,19-1.5,19-1.1l0.1,6.7L21.7,5.7
				z"/>
			<path id="Trazado_21963" class="st1" d="M15.6,9.6v2.6H9.1c-0.9,0-1.6-0.7-1.7-1.6V2.3c0.1-0.9,0.7-1.7,1.5-2.1L15.6-4v3.1l-6,3
				C9,2.4,8.9,2.8,8.9,3.7v5.1c0,0.9,0.4,1.1,0.9,1.1L15.6,9.6z"/>
			<path id="Trazado_21964" class="st1" d="M5.9,10.1v2.1h-7c-0.4,0-1.2-0.8-1.2-1.9V4.8c-0.1-1,0.6-2,1.6-2.2l6.6-1.2v2.3l-6.2,0.9
				c-0.3,0.1-0.5,0.2-0.5,0.7v0.8c0,0.4,0.2,0.5,0.6,0.5l6-0.7V8l-6,0.5c-0.5,0-0.6,0.2-0.6,0.6v0.7c0,0.2,0.1,0.5,0.6,0.5L5.9,10.1
				z"/>
			<path id="Trazado_21965" class="st1" d="M-5.7,3.3v6.9l-3.9-5.9c0,0,0,0,0,0c-0.1-0.1-0.1-0.2-0.2-0.2c-0.5-0.5-1.4-0.5-1.9,0
				C-11.9,4.3-12,4.7-12,5v7.2h1.6V6.1c0,0,3.6,5.4,3.6,5.5c0.5,0.7,1.5,0.8,2.1,0.3c0.2-0.1,0.3-0.3,0.4-0.5
				c0.1-0.2,0.2-0.4,0.2-0.6V3L-5.7,3.3z"/>
		</g>
	</g>
</g>
</svg>
